HIERARCHY
ROOT Hips
{
	OFFSET 0.000000 0.000000 0.000000
	CHANNELS 6 Xposition Yposition Zposition Zrotation Yrotation Xrotation 
	JOINT LHipJoint
	{
		OFFSET 0.000000 0.000000 0.000000
		CHANNELS 3 Zrotation Yrotation Xrotation
		JOINT LeftUpLeg
		{
			OFFSET 1.363060 -1.794630 0.839290
			CHANNELS 3 Zrotation Yrotation Xrotation
			JOINT LeftLeg
			{
				OFFSET 2.448110 -6.726130 0.000000
				CHANNELS 3 Zrotation Yrotation Xrotation
				JOINT LeftFoot
				{
					OFFSET 2.562200 -7.039590 0.000000
					CHANNELS 3 Zrotation Yrotation Xrotation
					JOINT LeftToeBase
					{
						OFFSET 0.157640 -0.433110 2.322550
						CHANNELS 3 Zrotation Yrotation Xrotation
						End Site
						{
							OFFSET 0.000000 0.000000 0.000000
						}
					}
				}
			}
		}
	}
	JOINT RHipJoint
	{
		OFFSET 0.000000 0.000000 0.000000
		CHANNELS 3 Zrotation Yrotation Xrotation
		JOINT RightUpLeg
		{
			OFFSET -1.305520 -1.794630 0.839290
			CHANNELS 3 Zrotation Yrotation Xrotation
			JOINT RightLeg
			{
				OFFSET -2.542530 -6.985550 0.000000
				CHANNELS 3 Zrotation Yrotation Xrotation
				JOINT RightFoot
				{
					OFFSET -2.568260 -7.056230 0.000000
					CHANNELS 3 Zrotation Yrotation Xrotation
					JOINT RightToeBase
					{
						OFFSET -0.164730 -0.452590 2.363150
						CHANNELS 3 Zrotation Yrotation Xrotation
						End Site
						{
							OFFSET 0.000000 0.000000 0.000000
						}
					}
				}
			}
		}
	}
	JOINT LowerBack
	{
		OFFSET 0.000000 0.000000 0.000000
		CHANNELS 3 Zrotation Yrotation Xrotation
		JOINT Spine
		{
			OFFSET 0.028270 2.035590 -0.193380
			CHANNELS 3 Zrotation Yrotation Xrotation
			JOINT Spine1
			{
				OFFSET 0.056720 2.048850 -0.042750
				CHANNELS 3 Zrotation Yrotation Xrotation
				JOINT Neck
				{
					OFFSET 0.000000 0.000000 0.000000
					CHANNELS 3 Zrotation Yrotation Xrotation
					JOINT Neck1
					{
						OFFSET -0.054170 1.746240 0.172020
						CHANNELS 3 Zrotation Yrotation Xrotation
						JOINT Head
						{
							OFFSET 0.104070 1.761360 -0.123970
							CHANNELS 3 Zrotation Yrotation Xrotation
							End Site
							{
								OFFSET 0.000000 0.000000 0.000000
							}
						}
					}
				}
				JOINT LeftShoulder
				{
					OFFSET 0.000000 0.000000 0.000000
					CHANNELS 3 Zrotation Yrotation Xrotation
					JOINT LeftArm
					{
						OFFSET 3.362410 1.200890 -0.311210
						CHANNELS 3 Zrotation Yrotation Xrotation
						JOINT LeftForeArm
						{
							OFFSET 4.983000 -0.000000 -0.000000
							CHANNELS 3 Zrotation Yrotation Xrotation
							JOINT LeftHand
							{
								OFFSET 3.483560 -0.000000 -0.000000
								CHANNELS 3 Zrotation Yrotation Xrotation
								JOINT LeftFingerBase
								{
									OFFSET 0.000000 0.000000 0.000000
									CHANNELS 3 Zrotation Yrotation Xrotation
									JOINT LeftHandIndex1
									{
										OFFSET 0.715260 -0.000000 -0.000000
										CHANNELS 3 Zrotation Yrotation Xrotation
										End Site
										{
											OFFSET 0.000000 0.000000 0.000000
										}
									}
								}
								JOINT LThumb
								{
									OFFSET 0.000000 0.000000 0.000000
									CHANNELS 3 Zrotation Yrotation Xrotation
									End Site
									{
										OFFSET 0.000000 0.000000 0.000000
									}
								}
							}
						}
					}
				}
				JOINT RightShoulder
				{
					OFFSET 0.000000 0.000000 0.000000
					CHANNELS 3 Zrotation Yrotation Xrotation
					JOINT RightArm
					{
						OFFSET -3.136600 1.374050 -0.404650
						CHANNELS 3 Zrotation Yrotation Xrotation
						JOINT RightForeArm
						{
							OFFSET -5.241900 -0.000000 -0.000000
							CHANNELS 3 Zrotation Yrotation Xrotation
							JOINT RightHand
							{
								OFFSET -3.444170 -0.000000 -0.000000
								CHANNELS 3 Zrotation Yrotation Xrotation
								JOINT RightFingerBase
								{
									OFFSET 0.000000 0.000000 0.000000
									CHANNELS 3 Zrotation Yrotation Xrotation
									JOINT RightHandIndex1
									{
										OFFSET -0.622530 -0.000000 -0.000000
										CHANNELS 3 Zrotation Yrotation Xrotation
										End Site
										{
											OFFSET 0.000000 0.000000 0.000000
										}
									}
								}
								JOINT RThumb
								{
									OFFSET 0.000000 0.000000 0.000000
									CHANNELS 3 Zrotation Yrotation Xrotation
									End Site
									{
										OFFSET 0.000000 0.000000 0.000000
									}
								}
							}
						}
					}
				}
			}
		}
	}
}
MOTION
Frames: 12
Frame Time: 0.008333
-3.132510 16.912711 -0.008516 -165.338520 80.267694 -142.760985 -11.871878 1.069265 -2.639820 -6.446223 -0.778756 -9.348529 -1.165445 1.556309 30.619107 0.551680 2.153194 -4.248364 0.099300 -0.000000 -64.908300 6.819319 -0.023646 1.280460 7.812702 11.884879 -41.094781 2.956245 -0.639469 15.200473 0.752075 4.189920 5.673722 0.468701 0.000000 -34.607199 5.652430 -1.500834 4.685042 -0.105457 -1.662814 -2.225228 -8.332925 -1.829650 -0.350501 9.292279 7.692548 6.660931 -5.580203 -0.450568 3.417562 0.000000 0.000000 0.000000 -7.085062 -10.797714 2.339243 -67.514356 -24.172696 13.501389 -2.894642 -25.398804 -0.019193 6.912730 -1.889597 -0.126651 -0.083927 0.193291 0.000000 0.000000 0.000000 0.000000 0.000000 0.000000 0.000000 23.343272 2.707312 0.408113 63.356072 10.671263 -7.880012 3.299894 16.390784 0.008908 1.524370 7.151147 0.093022 0.054139 -0.065467 -0.000000 0.000000 0.000000 0.000000 0.000000 0.000000 0.000000 
-3.008793 16.936229 0.000368 -165.963277 79.545188 -143.387222 -12.046462 1.082039 -2.707675 -5.894033 -0.177051 -10.238567 -1.029882 1.711926 32.245246 0.533754 1.990439 -2.668467 0.144700 -0.000000 -66.968900 6.767617 -0.075859 1.170940 8.248420 11.549986 -40.609455 3.001254 -0.637026 15.506728 0.694897 3.919744 4.866258 0.361100 -0.000000 -34.033800 5.773455 -1.596740 4.847854 -0.070827 -1.754124 -2.198753 -8.274841 -1.924737 -0.353638 9.536705 7.912766 6.757598 -5.529047 -0.448350 3.446218 0.000000 0.000000 0.000000 -6.652678 -10.995328 2.315175 -68.103443 -23.338273 13.178543 -2.866361 -24.082533 -0.018874 6.941800 -1.719352 -0.116301 -0.079391 0.185811 0.000000 0.000000 0.000000 0.000000 0.000000 0.000000 0.000000 23.347716 2.814156 0.397937 63.507072 11.316572 -8.501107 3.328391 15.301445 0.008752 1.563995 6.880093 0.091814 0.055332 -0.062719 -0.000000 0.000000 0.000000 0.000000 0.000000 0.000000 0.000000 
-2.885663 16.958713 0.010789 -166.854054 78.759768 -144.274538 -12.211835 1.091853 -2.760522 -5.383254 0.417121 -11.211807 -0.894101 1.861320 33.932621 0.532000 1.855286 -1.079484 0.174000 0.000001 -68.389600 6.736028 -0.124412 1.059655 8.648699 11.102318 -40.106745 3.044090 -0.628050 15.700233 0.640250 3.657555 4.208462 0.269100 -0.000000 -33.538200 5.852865 -1.700328 4.991686 -0.044162 -1.853254 -2.173348 -8.213862 -2.026775 -0.349974 9.797261 8.076845 6.848753 -5.474651 -0.446126 3.474068 0.000000 0.000000 0.000000 -6.206909 -11.230175 2.293430 -68.647567 -22.513084 12.973792 -2.849050 -22.786764 -0.018208 6.855640 -1.496967 -0.100944 -0.075397 0.178367 0.000000 0.000000 0.000000 0.000000 0.000000 0.000000 0.000000 23.351949 2.868773 0.383921 63.677947 11.956322 -9.058142 3.350599 14.306406 0.008541 1.598174 6.591117 0.089805 0.056376 -0.059995 -0.000000 0.000000 0.000000 0.000000 0.000000 0.000000 0.000000 
-2.763097 16.979965 0.021786 -167.868009 77.918396 -145.275968 -12.368417 1.096754 -2.796714 -4.909988 0.990972 -12.258776 -0.758934 2.003444 35.663827 0.548681 1.774798 0.490180 0.192199 -0.000000 -69.056700 6.719165 -0.170469 0.948892 9.023300 10.562005 -39.602097 3.085473 -0.612829 15.800187 0.587242 3.393317 3.678694 0.186700 -0.000000 -33.128800 5.909000 -1.803974 5.112608 -0.022253 -1.953729 -2.150140 -8.151175 -2.129428 -0.339851 10.066038 8.186348 6.933122 -5.418353 -0.443947 3.500666 0.000000 0.000000 0.000000 -5.775190 -11.493983 2.274926 -69.134887 -21.704753 12.900993 -2.843805 -21.529090 -0.017200 6.639645 -1.217811 -0.080879 -0.071950 0.170992 0.000000 0.000000 0.000000 0.000000 0.000000 0.000000 0.000000 23.353752 2.876185 0.366842 63.856496 12.576102 -9.515224 3.366996 13.435411 0.008288 1.626176 6.295864 0.087297 0.057241 -0.057349 -0.000000 0.000000 0.000000 0.000000 0.000000 0.000000 0.000000 
-2.641215 16.999942 0.032464 -168.884822 77.031111 -146.269083 -12.516567 1.094354 -2.816898 -4.468544 1.538158 -13.368260 -0.625704 2.137829 37.421417 0.584801 1.774461 2.009694 0.207499 0.000000 -68.885500 6.710857 -0.215342 0.841098 9.383432 9.955416 -39.105906 3.126593 -0.591250 15.825211 0.534320 3.117781 3.243469 0.108700 0.000001 -32.811200 5.960178 -1.900544 5.209090 -0.001732 -2.049208 -2.130202 -8.087739 -2.226581 -0.325183 10.336027 8.251110 7.011982 -5.360826 -0.441836 3.526241 0.000000 0.000000 0.000000 -5.381549 -11.778758 2.260923 -69.556632 -20.917399 12.962129 -2.850580 -20.328459 -0.015885 6.286561 -0.877556 -0.057306 -0.068998 0.163714 0.000000 0.000000 0.000000 0.000000 0.000000 0.000000 0.000000 23.348811 2.849881 0.347635 64.032479 13.155859 -9.853744 3.378216 12.717695 0.008004 1.653529 6.004981 0.084690 0.057858 -0.054834 -0.000000 0.000000 0.000000 0.000000 0.000000 0.000000 0.000000 
-2.520242 17.018760 0.042104 -169.825079 76.112493 -147.175507 -12.655568 1.082315 -2.824578 -4.055853 2.057266 -14.522507 -0.496063 2.264447 39.185437 0.640411 1.879692 3.448852 0.231000 -0.000001 -67.869400 6.705799 -0.259905 0.737560 9.737784 9.311328 -38.620266 3.168265 -0.563332 15.793079 0.479739 2.825109 2.863590 0.031700 -0.000001 -32.592800 6.019127 -1.983752 5.284426 0.019629 -2.133533 -2.112713 -8.024720 -2.312099 -0.304833 10.600925 8.269329 7.081776 -5.304063 -0.439835 3.549546 0.000000 0.000000 0.000000 -5.041480 -12.069073 2.250804 -69.909539 -20.166393 13.152751 -2.868855 -19.191422 -0.014314 5.799523 -0.482682 -0.032326 -0.066499 0.156557 0.000000 0.000000 0.000000 0.000000 0.000000 0.000000 0.000000 23.339086 2.789797 0.326899 64.192600 13.703337 -10.029226 3.385620 12.157924 0.007719 1.677047 5.740203 0.082084 0.058242 -0.052514 -0.000000 0.000000 0.000000 0.000000 0.000000 0.000000 0.000000 
-2.400439 17.036595 0.050160 -170.636540 75.179186 -147.945535 -12.785183 1.058419 -2.824737 -3.668411 2.552784 -15.705222 -0.371904 2.383932 40.938716 0.714412 2.110797 4.775375 0.274900 0.000001 -66.027401 6.698698 -0.305056 0.639701 10.094341 8.660230 -38.143436 3.211274 -0.528830 15.717862 0.421654 2.510782 2.500759 -0.046500 0.000000 -32.467500 6.095948 -2.048836 5.343487 0.043652 -2.201798 -2.096105 -7.963310 -2.381004 -0.275972 10.855955 8.242812 7.137856 -5.249740 -0.437944 3.568982 0.000000 0.000000 0.000000 -4.768502 -12.335173 2.243935 -70.192201 -19.480500 13.475055 -2.898274 -18.114503 -0.012569 5.191702 -0.041740 -0.008339 -0.064478 0.149571 0.000000 0.000000 0.000000 0.000000 0.000000 0.000000 0.000000 23.326641 2.699673 0.303954 64.326260 14.226947 -10.013788 3.390498 11.756852 0.007459 1.697228 5.519796 0.079878 0.058394 -0.050424 -0.000000 0.000000 0.000000 0.000000 0.000000 0.000000 0.000000 
-2.282078 17.053740 0.056331 -171.293790 74.248074 -148.557916 -12.905296 1.021321 -2.822454 -3.303468 3.032037 -16.900571 -0.254991 2.497343 42.667132 0.804884 2.482758 5.955596 0.350800 0.000000 -63.387900 6.685317 -0.351822 0.549395 10.458175 8.031225 -37.668947 3.255799 -0.487512 15.609616 0.358419 2.171878 2.124789 -0.126500 -0.000001 -32.422800 6.196413 -2.092211 5.390514 0.071610 -2.250141 -2.081857 -7.903117 -2.429865 -0.246975 11.101076 8.205269 7.191497 -5.195994 -0.436121 3.587554 0.000000 0.000000 0.000000 -4.566346 -12.585824 2.242863 -70.402693 -18.837630 13.884663 -2.935501 -17.123264 -0.010751 4.484926 0.444095 0.012452 -0.062803 0.142783 0.000000 0.000000 0.000000 0.000000 0.000000 0.000000 0.000000 23.303962 2.616573 0.280723 64.433308 14.689205 -9.853572 3.392365 11.534589 0.007229 1.729415 5.346684 0.078975 0.058160 -0.048636 -0.000000 0.000000 0.000000 0.000000 0.000000 0.000000 0.000000 
-2.165464 17.070465 0.060660 -171.798339 73.335948 -149.019772 -13.015262 0.970235 -2.823731 -2.961798 3.502455 -18.090568 -0.146765 2.605933 44.355877 0.909542 3.004882 6.960840 0.468200 -0.000000 -60.055000 6.663213 -0.400446 0.466967 10.830095 7.448280 -37.186716 3.301151 -0.439605 15.475095 0.288891 1.808362 1.716340 -0.207500 0.000000 -32.441400 6.318726 -2.112001 5.433278 0.103069 -2.275956 -2.068211 -7.844643 -2.455998 -0.217299 11.335868 8.159676 7.240874 -5.143880 -0.434367 3.604473 0.000000 0.000000 0.000000 -4.432490 -12.806758 2.246342 -70.544157 -18.247297 14.352916 -2.978280 -16.219828 -0.008961 3.712091 0.961165 0.027645 -0.061472 0.136237 0.000000 0.000000 0.000000 0.000000 0.000000 0.000000 0.000000 23.275307 2.543563 0.257436 64.506809 15.104369 -9.539618 3.391833 11.474810 0.007049 1.770337 5.235824 0.079173 0.057566 -0.047197 -0.000000 0.000000 0.000000 0.000000 0.000000 0.000000 0.000000 
-2.050825 17.087075 0.063384 -172.170889 72.458774 -149.358550 -13.113903 0.905410 -2.834242 -2.648570 3.969660 -19.255480 -0.047941 2.710681 45.987957 1.026423 3.681352 7.776723 0.633100 -0.000000 -56.257300 6.632256 -0.450216 0.391222 11.205629 6.927072 -36.685307 3.345783 -0.386091 15.320258 0.212852 1.424522 1.267366 -0.287100 -0.000000 -32.497400 6.454238 -2.108484 5.481267 0.136324 -2.278501 -2.052888 -7.788235 -2.458524 -0.186006 11.562605 8.116410 7.284854 -5.093414 -0.432629 3.619114 0.000000 0.000000 0.000000 -4.360602 -12.974091 2.253495 -70.620029 -17.730651 14.864994 -3.025230 -15.394572 -0.007301 2.914190 1.491057 0.035743 -0.060594 0.130020 0.000000 0.000000 0.000000 0.000000 0.000000 0.000000 0.000000 23.243875 2.492058 0.233221 64.544721 15.477583 -9.084249 3.388477 11.564405 0.006927 1.817189 5.196093 0.080772 0.056610 -0.046128 -0.000000 0.000000 0.000000 0.000000 0.000000 0.000000 0.000000 
-1.938314 17.103763 0.064937 -172.436274 71.628051 -149.604188 -13.200421 0.827887 -2.857716 -2.368435 4.435794 -20.380852 0.041114 2.812478 47.551863 1.153183 4.504729 8.390177 0.845800 0.000000 -52.173100 6.593418 -0.500439 0.321363 11.578645 6.477529 -36.155173 3.387819 -0.328044 15.146619 0.130562 1.023885 0.784169 -0.363100 -0.000000 -32.564700 6.593423 -2.082969 5.541167 0.169548 -2.258269 -2.034358 -7.734012 -2.437847 -0.152927 11.784161 8.085820 7.323571 -5.044212 -0.430855 3.631305 0.000000 0.000000 0.000000 -4.342755 -13.070989 2.263386 -70.633350 -17.298671 15.404828 -3.074332 -14.645027 -0.005869 2.135643 2.018445 0.036740 -0.060250 0.124208 0.000000 0.000000 0.000000 0.000000 0.000000 0.000000 0.000000 23.211702 2.472872 0.207413 64.547896 15.811911 -8.513603 3.381675 11.789578 0.006859 1.868172 5.228387 0.083674 0.055292 -0.045433 -0.000000 0.000000 0.000000 0.000000 0.000000 0.000000 0.000000 
-1.827943 17.120721 0.065880 -172.631031 70.852244 -149.797897 -13.273120 0.739773 -2.896355 -2.129991 4.897285 -21.451534 0.120738 2.911387 49.034984 1.287912 5.460510 8.804164 1.101400 0.000001 -48.062300 6.550176 -0.549568 0.255013 11.939037 6.098628 -35.589755 3.424970 -0.267525 14.957730 0.043450 0.614454 0.280790 -0.433001 -0.000000 -32.614300 6.721580 -2.038144 5.619781 0.199881 -2.216991 -2.011338 -7.681935 -2.395643 -0.119187 12.004833 8.078846 7.358709 -4.995507 -0.429002 3.641345 0.000000 0.000000 0.000000 -4.366860 -13.089528 2.275155 -70.587465 -16.953611 15.952777 -3.123463 -13.972300 -0.004737 1.421202 2.525990 0.031537 -0.060492 0.118858 0.000000 0.000000 0.000000 0.000000 0.000000 0.000000 0.000000 23.181126 2.496857 0.179821 64.519756 16.107056 -7.860765 3.370379 12.135376 0.006835 1.920982 5.329211 0.087876 0.053606 -0.045107 -0.000000 0.000000 0.000000 0.000000 0.000000 0.000000 0.000000 
